<?xml version="1.0" encoding="UTF-8"?>
<svg id="Layer_2" data-name="Layer 2" xmlns="http://www.w3.org/2000/svg" xmlns:xlink="http://www.w3.org/1999/xlink" viewBox="0 0 138.26 17.93">
  <defs>
    <style>
      .cls-1 {
        fill: url(#linear-gradient-2);
      }

      .cls-2 {
        fill: url(#linear-gradient-4);
      }

      .cls-3 {
        fill: url(#linear-gradient-3);
      }

      .cls-4 {
        fill: url(#linear-gradient-5);
      }

      .cls-5 {
        fill: url(#linear-gradient-8);
      }

      .cls-6 {
        fill: url(#linear-gradient-7);
      }

      .cls-7 {
        fill: url(#linear-gradient-9);
      }

      .cls-8 {
        fill: url(#linear-gradient-6);
      }

      .cls-9 {
        fill: url(#linear-gradient);
      }
    </style>
    <linearGradient id="linear-gradient" x1=".71" y1="18.47" x2="19.04" y2=".13" gradientUnits="userSpaceOnUse">
      <stop offset="0" stop-color="#1572ff"/>
      <stop offset=".08" stop-color="#177bf6"/>
      <stop offset=".2" stop-color="#1c94dd"/>
      <stop offset=".23" stop-color="#1e9cd7"/>
      <stop offset=".6" stop-color="#00d4b9"/>
      <stop offset=".83" stop-color="#f7ff15"/>
    </linearGradient>
    <linearGradient id="linear-gradient-2" x1="23.67" y1="16.08" x2="33.78" y2="5.97" xlink:href="#linear-gradient"/>
    <linearGradient id="linear-gradient-3" x1="39.17" y1="16.08" x2="49.28" y2="5.97" xlink:href="#linear-gradient"/>
    <linearGradient id="linear-gradient-4" x1="55.34" y1="17.18" x2="69.79" y2="2.73" xlink:href="#linear-gradient"/>
    <linearGradient id="linear-gradient-5" x1="70.16" y1="13.57" x2="84.55" y2="-.82" xlink:href="#linear-gradient"/>
    <linearGradient id="linear-gradient-6" x1="88.06" y1="16.3" x2="98.1" y2="6.26" xlink:href="#linear-gradient"/>
    <linearGradient id="linear-gradient-7" x1="99.09" y1="15.57" x2="110.42" y2="4.24" xlink:href="#linear-gradient"/>
    <linearGradient id="linear-gradient-8" x1="112.4" y1="16.03" x2="122.18" y2="6.25" xlink:href="#linear-gradient"/>
    <linearGradient id="linear-gradient-9" x1="126.72" y1="16.3" x2="136.76" y2="6.26" xlink:href="#linear-gradient"/>
  </defs>
  <g id="Layer_1-2" data-name="Layer 1">
    <g>
      <path class="cls-9" d="M0,.84h5.69l5.18,13.42-1.99.36L14.09.84h5.66v16.92h-4.7V3.84l1.46.29-4.66,13.63h-3.94L3.26,4.13l1.44-.29v13.92H0V.84Z"/>
      <path class="cls-1" d="M28.7,17.93c-1.34,0-2.54-.28-3.6-.83-1.06-.55-1.89-1.35-2.51-2.39-.62-1.04-.92-2.27-.92-3.7s.31-2.65.92-3.68c.62-1.03,1.46-1.82,2.52-2.38,1.06-.55,2.27-.83,3.61-.83s2.55.28,3.61.83c1.06.55,1.9,1.34,2.52,2.38.62,1.03.92,2.26.92,3.68s-.31,2.66-.94,3.7-1.47,1.84-2.53,2.39c-1.06.55-2.27.83-3.61.83ZM28.7,13.85c.4,0,.78-.1,1.13-.3s.64-.51.85-.94c.22-.42.32-.96.32-1.6s-.11-1.17-.32-1.58c-.22-.42-.5-.72-.84-.92-.34-.2-.72-.3-1.12-.3s-.77.1-1.12.3c-.34.2-.62.51-.83.92-.21.42-.31.94-.31,1.58s.1,1.17.3,1.6c.2.42.47.74.82.94.34.2.72.3,1.12.3Z"/>
      <path class="cls-3" d="M44.21,17.93c-1.34,0-2.54-.28-3.6-.83-1.06-.55-1.89-1.35-2.51-2.39-.62-1.04-.92-2.27-.92-3.7s.31-2.65.92-3.68c.62-1.03,1.46-1.82,2.52-2.38,1.06-.55,2.27-.83,3.61-.83s2.55.28,3.61.83c1.06.55,1.9,1.34,2.52,2.38.62,1.03.92,2.26.92,3.68s-.31,2.66-.94,3.7-1.47,1.84-2.53,2.39c-1.06.55-2.27.83-3.61.83ZM44.21,13.85c.4,0,.78-.1,1.13-.3s.64-.51.85-.94c.22-.42.32-.96.32-1.6s-.11-1.17-.32-1.58c-.22-.42-.5-.72-.84-.92-.34-.2-.72-.3-1.12-.3s-.77.1-1.12.3c-.34.2-.62.51-.83.92-.21.42-.31.94-.31,1.58s.1,1.17.3,1.6c.2.42.47.74.82.94.34.2.72.3,1.12.3Z"/>
      <path class="cls-2" d="M58.25,17.93c-1.18,0-2.19-.31-3.02-.94-.83-.62-1.46-1.46-1.9-2.51-.43-1.05-.65-2.2-.65-3.44s.22-2.4.65-3.44c.43-1.05,1.06-1.89,1.9-2.52.83-.63,1.84-.95,3.02-.95.99,0,1.85.28,2.58.84.73.56,1.24,1.34,1.52,2.35V0h4.7v17.76h-2.4c-.74,0-1.3-.2-1.7-.6-.4-.4-.6-.97-.6-1.7v-.7c-.29,1.01-.8,1.79-1.52,2.34-.73.55-1.59.83-2.58.83ZM59.9,13.8c.46,0,.88-.11,1.25-.34s.66-.54.88-.95c.22-.41.32-.9.32-1.48s-.11-1.07-.32-1.49c-.22-.42-.51-.74-.88-.97-.37-.23-.78-.35-1.25-.35s-.88.12-1.25.35c-.37.23-.66.56-.86.97-.21.42-.31.91-.31,1.49s.1,1.07.31,1.48c.21.41.5.72.86.95s.78.34,1.25.34Z"/>
      <path class="cls-4" d="M81.19.84h5.02l-5.83,16.92h-6.02L68.49.84h5.04l3.84,12.22,3.82-12.22Z"/>
      <path class="cls-8" d="M93.14,17.93c-.93,0-1.84-.14-2.72-.43-.89-.29-1.69-.72-2.4-1.28s-1.28-1.28-1.7-2.12-.64-1.83-.64-2.95c0-1.02.18-1.96.55-2.82s.88-1.6,1.54-2.22c.66-.62,1.41-1.11,2.27-1.45.86-.34,1.77-.52,2.75-.52.75,0,1.49.1,2.22.3.73.2,1.39.5,1.99.89s1.08.87,1.43,1.43c.35.56.53,1.19.53,1.9,0,.83-.23,1.53-.7,2.09-.46.56-1.08,1-1.85,1.33-.77.33-1.6.56-2.51.71s-1.79.22-2.65.22h-.3c-.1,0-.2,0-.3-.01-.1,0-.19-.01-.29-.01.08.27.26.53.54.77.28.24.63.43,1.04.56s.85.2,1.3.2c.5,0,.96-.08,1.39-.24.43-.16.83-.36,1.19-.61.36-.25.66-.51.9-.78l2.88,2.33c-.46.61-1.04,1.12-1.74,1.52-.7.41-1.45.71-2.26.91-.81.2-1.63.3-2.46.3ZM91.15,10.08c.37,0,.75-.02,1.14-.06.39-.04.75-.11,1.08-.22.33-.1.6-.25.8-.44s.31-.43.31-.72c0-.22-.09-.42-.26-.58-.18-.16-.4-.28-.66-.37s-.53-.13-.8-.13c-.54,0-1.01.14-1.4.41-.39.27-.69.6-.89.98-.2.38-.32.74-.35,1.08.11.02.27.03.47.04.2,0,.39.01.56.01Z"/>
      <path class="cls-6" d="M101.28,17.76V4.3h4.7v13.46h-4.7ZM105.43,12.46l.55-4.78c.27-1.09.77-1.94,1.49-2.57.72-.62,1.68-.94,2.88-.94v4.94c-.19-.05-.38-.08-.55-.1-.18-.02-.35-.02-.53-.02-.56,0-1.09.14-1.6.41-.5.27-.91.66-1.22,1.18s-.47,1.14-.47,1.87h-.55Z"/>
      <path class="cls-5" d="M117.5,17.93c-1.01,0-1.93-.14-2.77-.43-.84-.29-1.55-.71-2.12-1.26-.58-.55-1-1.2-1.27-1.96l4.3-.98c.1.4.3.72.62.95.32.23.73.35,1.22.35.4,0,.71-.09.94-.26.22-.18.34-.38.34-.62,0-.34-.17-.58-.52-.74s-.79-.29-1.34-.4c-.55-.1-1.13-.22-1.74-.36-.61-.14-1.19-.34-1.74-.61-.55-.27-1-.66-1.34-1.15-.34-.5-.52-1.15-.52-1.97s.22-1.5.65-2.16c.43-.66,1.06-1.18,1.9-1.58.83-.4,1.86-.6,3.07-.6,1.02,0,1.92.15,2.7.46.78.3,1.42.73,1.92,1.28.5.55.87,1.2,1.09,1.93l-4.03,1.08c-.08-.43-.27-.77-.56-1.02-.3-.25-.7-.37-1.21-.37-.38,0-.68.08-.88.24-.2.16-.3.37-.3.62,0,.32.17.56.52.73.34.17.79.31,1.34.42.55.11,1.14.25,1.75.41.62.16,1.2.39,1.75.68.55.3,1,.7,1.34,1.22.34.52.52,1.2.52,2.05,0,.8-.23,1.51-.7,2.12-.46.62-1.12,1.09-1.96,1.43-.84.34-1.83.5-2.96.5Z"/>
      <path class="cls-7" d="M131.81,17.93c-.93,0-1.84-.14-2.72-.43-.89-.29-1.69-.72-2.4-1.28s-1.28-1.28-1.7-2.12-.64-1.83-.64-2.95c0-1.02.18-1.96.55-2.82s.88-1.6,1.54-2.22c.66-.62,1.41-1.11,2.27-1.45.86-.34,1.77-.52,2.75-.52.75,0,1.49.1,2.22.3.73.2,1.39.5,1.99.89s1.08.87,1.43,1.43c.35.56.53,1.19.53,1.9,0,.83-.23,1.53-.7,2.09-.46.56-1.08,1-1.85,1.33-.77.33-1.6.56-2.51.71s-1.79.22-2.65.22h-.3c-.1,0-.2,0-.3-.01-.1,0-.19-.01-.29-.01.08.27.26.53.54.77.28.24.63.43,1.04.56s.85.2,1.3.2c.5,0,.96-.08,1.39-.24.43-.16.83-.36,1.19-.61.36-.25.66-.51.9-.78l2.88,2.33c-.46.61-1.04,1.12-1.74,1.52-.7.41-1.45.71-2.26.91-.81.2-1.63.3-2.46.3ZM129.81,10.08c.37,0,.75-.02,1.14-.06.39-.04.75-.11,1.08-.22.33-.1.6-.25.8-.44s.31-.43.31-.72c0-.22-.09-.42-.26-.58-.18-.16-.4-.28-.66-.37s-.53-.13-.8-.13c-.54,0-1.01.14-1.4.41-.39.27-.69.6-.89.98-.2.38-.32.74-.35,1.08.11.02.27.03.47.04.2,0,.39.01.56.01Z"/>
    </g>
  </g>
</svg>